<?xml version="1.0" standalone="no"?>
<!DOCTYPE svg PUBLIC "-//W3C//DTD SVG 20010904//EN"
 "http://www.w3.org/TR/2001/REC-SVG-20010904/DTD/svg10.dtd">
<svg version="1.0" xmlns="http://www.w3.org/2000/svg"
 width="619.000000pt" height="619.000000pt" viewBox="0 0 619.000000 619.000000"
 preserveAspectRatio="xMidYMid meet">
<metadata>
Created by potrace 1.14, written by Peter Selinger 2001-2017
</metadata>
<g transform="translate(0.000000,619.000000) scale(0.100000,-0.100000)"
fill="#000000" stroke="none">
<path d="M1600 5862 c-25 -1 -98 -12 -163 -23 -692 -117 -1219 -696 -1324
-1454 -16 -119 -8 -530 12 -587 2 -7 6 -31 9 -53 5 -43 7 -54 31 -160 75 -330
260 -773 440 -1055 115 -181 255 -385 275 -400 3 -3 17 -21 30 -40 96 -137
458 -522 668 -709 96 -86 310 -263 397 -327 33 -25 67 -51 76 -58 143 -117
584 -402 878 -567 l173 -98 39 25 c21 13 41 24 43 24 17 0 402 232 611 369
117 76 412 286 425 301 3 3 23 19 45 35 211 156 604 516 785 720 25 28 59 66
75 85 162 184 376 478 491 675 16 27 34 59 41 70 50 82 211 426 253 540 64
171 121 371 145 505 37 205 40 242 40 455 -1 210 -6 273 -36 405 -6 25 -13 56
-15 69 -3 14 -21 72 -41 130 -174 519 -576 919 -1063 1059 -58 17 -121 33
-140 36 -19 3 -66 11 -104 17 -113 18 -408 15 -468 -6 -7 -2 -26 -6 -43 -9
-193 -32 -407 -132 -580 -271 -85 -68 -199 -192 -272 -293 -67 -93 -180 -312
-208 -402 -10 -30 -20 -59 -22 -63 -3 -5 -16 24 -30 64 -82 246 -251 499 -439
660 -82 70 -93 79 -163 123 -154 99 -333 165 -528 196 -70 11 -253 18 -343 12z"/>
</g>
</svg>
